<svg width="32" height="32" viewBox="0 0 32 32" fill="none" xmlns="http://www.w3.org/2000/svg">
<path d="M5.2614 6H26.7364C26.9304 6.00006 27.1201 6.05654 27.2826 6.16254C27.445 6.26855 27.5731 6.41951 27.6513 6.59703C27.7295 6.77456 27.7543 6.97098 27.7228 7.16238C27.6913 7.35378 27.6048 7.53188 27.4739 7.675L19.2614 16.7125C19.0905 16.8955 18.9965 17.1371 18.9989 17.3875V24.4625C19.0004 24.6287 18.96 24.7926 18.8813 24.939C18.8027 25.0854 18.6883 25.2095 18.5489 25.3L14.5489 27.9625C14.3989 28.0613 14.225 28.1179 14.0455 28.1263C13.866 28.1347 13.6876 28.0945 13.529 28.0101C13.3704 27.9257 13.2375 27.8001 13.1442 27.6466C13.0509 27.493 13.0007 27.3172 12.9989 27.1375V17.3875C13.0013 17.1371 12.9073 16.8955 12.7364 16.7125L4.5239 7.675C4.39297 7.53188 4.30649 7.35378 4.27499 7.16238C4.24349 6.97098 4.26834 6.77456 4.3465 6.59703C4.42467 6.41951 4.55278 6.26855 4.71522 6.16254C4.87766 6.05654 5.06743 6.00006 5.2614 6V6Z" stroke="#5E3023" stroke-width="1.5" stroke-linecap="round" stroke-linejoin="round"/>
</svg>
