<svg width="29" height="29" viewBox="0 0 29 29" fill="none" xmlns="http://www.w3.org/2000/svg">
<path fill-rule="evenodd" clip-rule="evenodd" d="M14.3165 2.57879C7.90668 2.57879 2.71155 7.77393 2.71155 14.1837C2.71155 16.4093 3.33692 18.4853 4.42134 20.2505L4.77078 20.8192L2.58776 25.9124L7.68103 23.7294L8.25096 24.0788C10.0149 25.1633 12.0909 25.7886 14.3165 25.7886C20.7263 25.7886 25.9214 20.5935 25.9214 14.1837C25.9214 7.77393 20.7263 2.57879 14.3165 2.57879ZM0.13241 14.1838C0.13241 6.35047 6.48288 0 14.3162 0C22.1495 0 28.5 6.35047 28.5 14.1838C28.5 22.0171 22.1495 28.3676 14.3162 28.3676C11.8431 28.3676 9.51435 27.7332 7.48735 26.6191L3.60357 28.2838C1.46311 29.2006 -0.700565 27.0369 0.216224 24.8964L1.88089 21.0126C0.766813 18.9857 0.13241 16.6569 0.13241 14.1838ZM7.86842 11.6049C7.86842 10.8931 8.44609 10.3155 9.15786 10.3155H13.0262C13.7379 10.3155 14.3156 10.8931 14.3156 11.6049C14.3156 12.3167 13.7379 12.8944 13.0262 12.8944H9.15786C8.44609 12.8944 7.86842 12.3167 7.86842 11.6049ZM7.86842 16.7625C7.86842 16.0507 8.44609 15.4731 9.15786 15.4731H19.4733C20.1851 15.4731 20.7628 16.0507 20.7628 16.7625C20.7628 17.4743 20.1851 18.0519 19.4733 18.0519H9.15786C8.44609 18.0519 7.86842 17.4743 7.86842 16.7625Z" fill="#5E3023"/>
</svg>
