<svg width="30" height="30" viewBox="0 0 30 30" fill="none" xmlns="http://www.w3.org/2000/svg">
<path d="M11.125 25H5.92979C5.6832 25 5.4467 24.902 5.27233 24.7277C5.09797 24.5533 5.00001 24.3168 5.00001 24.0702V18.875C4.99958 18.7543 5.02298 18.6347 5.06884 18.523C5.11471 18.4113 5.18216 18.3098 5.26732 18.2242L19.2141 4.27738C19.3006 4.18953 19.4038 4.11976 19.5175 4.07214C19.6312 4.02452 19.7533 4 19.8766 4C19.9999 4 20.122 4.02452 20.2357 4.07214C20.3494 4.11976 20.4525 4.18953 20.5391 4.27738L25.7226 9.46094C25.8105 9.54746 25.8802 9.65058 25.9279 9.76431C25.9755 9.87805 26 10.0001 26 10.1234C26 10.2467 25.9755 10.3688 25.9279 10.4825C25.8802 10.5962 25.8105 10.6994 25.7226 10.7859L11.7758 24.7327C11.6902 24.8178 11.5887 24.8853 11.477 24.9312C11.3653 24.977 11.2457 25.0004 11.125 25V25Z" stroke="#5E3023" stroke-width="1.5" stroke-linecap="round" stroke-linejoin="round"/>
<path d="M16 8L22 14" stroke="#5E3023" stroke-width="1.5" stroke-linecap="round" stroke-linejoin="round"/>
</svg>
