<svg width="28" height="27" viewBox="0 0 28 27" fill="none" xmlns="http://www.w3.org/2000/svg">
<path d="M5.25 14.6982V21.9C5.25 22.1234 5.34219 22.3377 5.50628 22.4956C5.67038 22.6536 5.89294 22.7423 6.125 22.7423H21.875C22.1071 22.7423 22.3296 22.6536 22.4937 22.4956C22.6578 22.3377 22.75 22.1234 22.75 21.9V14.6982" stroke="#5E3023" stroke-width="1.5" stroke-linecap="round" stroke-linejoin="round"/>
<path d="M5.90625 4.21143H22.0938C22.2836 4.21293 22.4679 4.27309 22.6195 4.38303C22.7711 4.49297 22.882 4.64689 22.9359 4.8221L24.5 10.1076H3.5L5.06406 4.8221C5.11796 4.64689 5.22889 4.49297 5.38051 4.38303C5.53213 4.27309 5.71643 4.21293 5.90625 4.21143V4.21143Z" stroke="#5E3023" stroke-width="1.5" stroke-linecap="round" stroke-linejoin="round"/>
<path d="M10.5 10.1079V11.7925C10.5 12.6861 10.1313 13.5431 9.47487 14.175C8.8185 14.8068 7.92826 15.1618 7 15.1618C6.07174 15.1618 5.1815 14.8068 4.52513 14.175C3.86875 13.5431 3.5 12.6861 3.5 11.7925V10.1079" stroke="#5E3023" stroke-width="1.5" stroke-linecap="round" stroke-linejoin="round"/>
<path d="M17.5 10.1079V11.7925C17.5 12.6861 17.1313 13.5431 16.4749 14.175C15.8185 14.8068 14.9283 15.1618 14 15.1618C13.0717 15.1618 12.1815 14.8068 11.5251 14.175C10.8687 13.5431 10.5 12.6861 10.5 11.7925V10.1079" stroke="#5E3023" stroke-width="1.5" stroke-linecap="round" stroke-linejoin="round"/>
<path d="M24.5 10.1079V11.7925C24.5 12.6861 24.1313 13.5431 23.4749 14.175C22.8185 14.8068 21.9283 15.1618 21 15.1618C20.0717 15.1618 19.1815 14.8068 18.5251 14.175C17.8687 13.5431 17.5 12.6861 17.5 11.7925V10.1079" stroke="#5E3023" stroke-width="1.5" stroke-linecap="round" stroke-linejoin="round"/>
</svg>
