<svg width="25" height="25" viewBox="0 0 25 25" fill="none" xmlns="http://www.w3.org/2000/svg">
<path fill-rule="evenodd" clip-rule="evenodd" d="M12.5424 4.82166C8.32546 4.82166 4.90761 8.23951 4.90761 12.4565C4.90761 13.9207 5.31904 15.2864 6.03247 16.4478L6.26237 16.8219L4.82617 20.1727L8.17701 18.7365L8.55196 18.9664C9.71245 19.6799 11.0782 20.0913 12.5424 20.0913C16.7594 20.0913 20.1772 16.6734 20.1772 12.4565C20.1772 8.23951 16.7594 4.82166 12.5424 4.82166ZM3.21211 12.4564C3.21211 7.30294 7.39005 3.125 12.5436 3.125C17.6971 3.125 21.875 7.30294 21.875 12.4564C21.875 17.6099 17.6971 21.7879 12.5436 21.7879C10.9165 21.7879 9.38444 21.3705 8.05089 20.6376L5.49577 21.7327C4.08757 22.3359 2.6641 20.9124 3.26725 19.5042L4.36242 16.9491C3.62948 15.6156 3.21211 14.0835 3.21211 12.4564ZM8.30078 10.7598C8.30078 10.2915 8.68083 9.91147 9.14909 9.91147H11.694C12.1623 9.91147 12.5423 10.2915 12.5423 10.7598C12.5423 11.2281 12.1623 11.6081 11.694 11.6081H9.14909C8.68083 11.6081 8.30078 11.2281 8.30078 10.7598ZM8.30078 14.153C8.30078 13.6847 8.68083 13.3046 9.14909 13.3046H15.9356C16.4039 13.3046 16.7839 13.6847 16.7839 14.153C16.7839 14.6212 16.4039 15.0013 15.9356 15.0013H9.14909C8.68083 15.0013 8.30078 14.6212 8.30078 14.153Z" fill="#5E3023"/>
</svg>
