<svg width="29" height="27" viewBox="0 0 29 27" fill="none" xmlns="http://www.w3.org/2000/svg">
<path d="M24.5436 18.6999V8.30065C24.5428 8.15043 24.5008 8.00309 24.422 7.87347C24.3431 7.74385 24.2301 7.63654 24.0944 7.56236L14.453 2.34166C14.3231 2.26946 14.1757 2.23145 14.0257 2.23145C13.8757 2.23145 13.7283 2.26946 13.5984 2.34166L3.95701 7.56236C3.82132 7.63654 3.70835 7.74385 3.62948 7.87347C3.55062 8.00309 3.50865 8.15043 3.50781 8.30065V18.6999C3.50865 18.8501 3.55062 18.9974 3.62948 19.127C3.70835 19.2567 3.82132 19.364 3.95701 19.4381L13.5984 24.6589C13.7283 24.7311 13.8757 24.7691 14.0257 24.7691C14.1757 24.7691 14.3231 24.7311 14.453 24.6589L24.0944 19.4381C24.2301 19.364 24.3431 19.2567 24.422 19.127C24.5008 18.9974 24.5428 18.8501 24.5436 18.6999V18.6999Z" stroke="#5E3023" stroke-width="1.5" stroke-linecap="round" stroke-linejoin="round"/>
<path d="M19.3931 16.084V10.5996L8.76562 4.95703" stroke="#5E3023" stroke-width="1.5" stroke-linecap="round" stroke-linejoin="round"/>
<path d="M24.4198 7.86816L14.121 13.5002L3.625 7.86816" stroke="#5E3023" stroke-width="1.5" stroke-linecap="round" stroke-linejoin="round"/>
<path d="M14.122 13.5L14.0234 24.7641" stroke="#5E3023" stroke-width="1.5" stroke-linecap="round" stroke-linejoin="round"/>
</svg>
