<svg width="30" height="30" viewBox="0 0 30 30" fill="none" xmlns="http://www.w3.org/2000/svg">
<path fill-rule="evenodd" clip-rule="evenodd" d="M15.384 5.625C15.1496 5.625 14.9162 5.63344 14.6855 5.65031C14.4071 5.67094 14.1118 5.91375 14.0508 6.33469L13.9618 6.94688C13.809 8.00063 13.0862 8.78344 12.2827 9.21469C12.1618 9.27938 12.0437 9.34875 11.9274 9.42C11.1512 9.90281 10.1115 10.1372 9.12241 9.7425L8.54678 9.51281C8.15116 9.35531 7.79397 9.48844 7.63553 9.72C7.37397 10.1034 7.13959 10.5075 6.93616 10.9303C6.81428 11.1816 6.87709 11.5566 7.21084 11.82L7.70116 12.2072C8.53553 12.8653 8.85334 13.8806 8.82428 14.7928L8.82147 15L8.82428 15.2072C8.85334 16.1194 8.53553 17.1347 7.70116 17.7928L7.21084 18.18C6.87709 18.4434 6.81428 18.8184 6.93616 19.0697C7.13959 19.4925 7.37397 19.8966 7.63553 20.28C7.79397 20.5116 8.15116 20.6447 8.54678 20.4872L9.12241 20.2575C10.1115 19.8628 11.1512 20.0981 11.9274 20.58C12.0437 20.6512 12.1618 20.7206 12.2827 20.7853C13.0862 21.2166 13.809 21.9994 13.9618 23.0531L14.0508 23.6653C14.1118 24.0863 14.4071 24.3291 14.6855 24.3497C14.9162 24.3666 15.1496 24.375 15.384 24.375C15.6183 24.375 15.8518 24.3666 16.0824 24.3497C16.3618 24.3291 16.6562 24.0863 16.7171 23.6653L16.8062 23.0531C16.959 21.9994 17.6818 21.2166 18.4852 20.7853C18.6062 20.7206 18.7243 20.6512 18.8415 20.58C19.6168 20.0981 20.6565 19.8628 21.6455 20.2575L22.2212 20.4872C22.6168 20.6447 22.974 20.5116 23.1324 20.28C23.394 19.8966 23.6283 19.4916 23.8318 19.0697C23.9537 18.8184 23.8908 18.4434 23.5571 18.18L23.0668 17.7928C22.2324 17.1347 21.9146 16.1194 21.9437 15.2072L21.9465 15L21.9437 14.7928C21.9146 13.8806 22.2324 12.8653 23.0668 12.2072L23.5571 11.82C23.8908 11.5566 23.9537 11.1816 23.8318 10.9303C23.6283 10.5084 23.394 10.1034 23.1324 9.72C22.974 9.48844 22.6168 9.35531 22.2212 9.51281L21.6455 9.7425C20.6565 10.1372 19.6168 9.90281 18.8415 9.42C18.7243 9.34875 18.6062 9.27938 18.4852 9.21469C17.6818 8.78344 16.959 8.00063 16.8062 6.94688L16.7171 6.33469C16.6562 5.91375 16.3618 5.67094 16.0824 5.65031C15.8518 5.63344 15.6183 5.625 15.384 5.625ZM14.5487 3.78094C14.8243 3.76031 15.1027 3.75 15.384 3.75C15.6652 3.75 15.9437 3.76031 16.2193 3.78094C17.5177 3.87562 18.4065 4.92187 18.5724 6.06562L18.6615 6.67781C18.7083 7.00031 18.9502 7.33594 19.3721 7.56281C19.5277 7.64625 19.6805 7.73438 19.8296 7.82812C20.2365 8.08031 20.648 8.12156 20.9508 8.00063L21.5274 7.77094C22.599 7.34344 23.9471 7.59 24.6802 8.6625C24.9943 9.12281 25.2765 9.60844 25.5212 10.1147C26.0865 11.2866 25.6243 12.5784 24.7177 13.2928L24.2283 13.6791C23.9724 13.8806 23.8027 14.2575 23.8177 14.7347C23.8205 14.8228 23.8215 14.9109 23.8215 15C23.8215 15.0891 23.8205 15.1772 23.8177 15.2653C23.8027 15.7425 23.9724 16.1194 24.2283 16.3209L24.7177 16.7072C25.6243 17.4216 26.0865 18.7134 25.5212 19.8853C25.2765 20.3916 24.9943 20.8772 24.6802 21.3375C23.9471 22.41 22.599 22.6566 21.5274 22.2291L20.9508 21.9994C20.648 21.8784 20.2365 21.9197 19.8296 22.1719C19.6805 22.2656 19.5277 22.3538 19.3721 22.4372C18.9502 22.6641 18.7083 22.9997 18.6615 23.3222L18.5724 23.9344C18.4065 25.0781 17.5177 26.1244 16.2193 26.2191C15.9437 26.2397 15.6652 26.25 15.384 26.25C15.1027 26.25 14.8243 26.2397 14.5487 26.2191C13.2512 26.1244 12.3615 25.0781 12.1955 23.9344L12.1065 23.3222C12.0596 22.9997 11.8177 22.6641 11.3958 22.4372C11.2402 22.3538 11.0874 22.2656 10.9383 22.1719C10.5315 21.9197 10.1199 21.8784 9.81709 21.9994L9.24053 22.2291C8.16897 22.6566 6.82084 22.41 6.08772 21.3375C5.77366 20.8772 5.49147 20.3916 5.24772 19.8853C4.68147 18.7134 5.14366 17.4216 6.05022 16.7072L6.53959 16.3209C6.79553 16.1194 6.96522 15.7425 6.95022 15.2653C6.94741 15.1772 6.94647 15.0891 6.94647 15C6.94647 14.9109 6.94741 14.8228 6.95022 14.7347C6.96522 14.2575 6.79553 13.8806 6.53959 13.6791L6.05022 13.2928C5.14366 12.5784 4.68147 11.2866 5.24772 10.1147C5.49147 9.60844 5.77366 9.12281 6.08772 8.6625C6.82084 7.59 8.16897 7.34344 9.24053 7.77094L9.81709 8.00063C10.1199 8.12156 10.5315 8.08031 10.9383 7.82812C11.0874 7.73438 11.2402 7.64625 11.3958 7.56281C11.8177 7.33594 12.0596 7.00031 12.1065 6.67781L12.1955 6.06562C12.3615 4.92187 13.2512 3.87562 14.5487 3.78094ZM15.384 12.1875C13.8305 12.1875 12.5715 13.4466 12.5715 15C12.5715 16.5534 13.8305 17.8125 15.384 17.8125C16.9374 17.8125 18.1965 16.5534 18.1965 15C18.1965 13.4466 16.9374 12.1875 15.384 12.1875ZM10.6965 15C10.6965 12.4116 12.7946 10.3125 15.384 10.3125C17.9724 10.3125 20.0715 12.4116 20.0715 15C20.0715 17.5884 17.9724 19.6875 15.384 19.6875C12.7946 19.6875 10.6965 17.5884 10.6965 15Z" fill="#5E3023"/>
</svg>
