<svg width="31" height="31" viewBox="0 0 31 31" fill="none" xmlns="http://www.w3.org/2000/svg">
<path fill-rule="evenodd" clip-rule="evenodd" d="M15.5047 12.3904L27.2508 0.644316C28.1098 -0.214772 29.5027 -0.214772 30.3618 0.644316C31.2209 1.5034 31.2209 2.89626 30.3618 3.75535L18.6157 15.5014L30.3652 27.251C31.2243 28.1101 31.2243 29.5029 30.3652 30.362C29.5062 31.2211 28.1133 31.2211 27.2542 30.362L15.5047 18.6125L3.75535 30.3618C2.89626 31.2209 1.5034 31.2209 0.644316 30.3618C-0.214772 29.5027 -0.214772 28.1098 0.644316 27.2508L12.3936 15.5014L0.647765 3.75556C-0.211323 2.89647 -0.211323 1.50361 0.647765 0.644523C1.50685 -0.214565 2.89971 -0.214565 3.7588 0.644524L15.5047 12.3904Z" fill="#5E3023"/>
</svg>
