<svg width="20" height="20" viewBox="0 0 20 20" fill="none" xmlns="http://www.w3.org/2000/svg">
<path fill-rule="evenodd" clip-rule="evenodd" d="M10.0003 7.99284L17.5776 0.415603C18.1317 -0.138534 19.0301 -0.138534 19.5843 0.415603C20.1384 0.969741 20.1384 1.86818 19.5843 2.42231L12.007 9.99955L19.5864 17.5789C20.1405 18.133 20.1405 19.0314 19.5864 19.5856C19.0322 20.1397 18.1338 20.1397 17.5796 19.5856L10.0003 12.0063L2.42231 19.5843C1.86818 20.1384 0.969741 20.1384 0.415603 19.5843C-0.138534 19.0301 -0.138534 18.1317 0.415603 17.5776L7.99361 9.99955L0.417689 2.42363C-0.136448 1.86949 -0.136448 0.971059 0.417689 0.416921C0.971827 -0.137216 1.87026 -0.137216 2.4244 0.416921L10.0003 7.99284Z" fill="#5E3023"/>
</svg>
