<svg width="48" height="48" viewBox="0 0 48 48" fill="none" xmlns="http://www.w3.org/2000/svg">
<rect width="48" height="48" fill="white"/>
<path fill-rule="evenodd" clip-rule="evenodd" d="M23.9684 12.75C27.6363 12.75 30.6991 15.547 31.0312 19.1999L31.5398 24.7947C31.5845 25.2858 31.88 25.7189 32.3212 25.9395L32.3252 25.9415C33.3128 26.4353 33.9367 27.4448 33.9367 28.549V28.9842C33.9367 30.3998 32.7891 31.5475 31.3734 31.5475H27.1013V32.1171C27.1013 33.8473 25.6986 35.25 23.9684 35.25C22.2381 35.25 20.8354 33.8473 20.8354 32.1171V31.5475H16.5633C15.1476 31.5475 14 30.3998 14 28.9842V28.549C14 27.4448 14.6239 26.4353 15.6116 25.9415L15.6156 25.9395C16.0567 25.7189 16.3523 25.2858 16.3969 24.7947L16.9055 19.1999C17.2376 15.547 20.3004 12.75 23.9684 12.75ZM22.5443 31.5475V32.1171C22.5443 32.9036 23.1819 33.5411 23.9684 33.5411C24.7548 33.5411 25.3924 32.9036 25.3924 32.1171V31.5475H22.5443ZM23.9684 14.4589C21.1842 14.4589 18.8594 16.5819 18.6074 19.3546L18.0987 24.9494C18.0005 26.0299 17.3502 26.9827 16.3798 27.4679C15.967 27.6743 15.7089 28.092 15.7089 28.549V28.9842C15.7089 29.4561 16.0914 29.8386 16.5633 29.8386H31.3734C31.8453 29.8386 32.2278 29.4561 32.2278 28.9842V28.549C32.2278 28.092 31.9697 27.6743 31.5609 27.4699C30.5865 26.9827 29.9362 26.0299 29.838 24.9494L29.3293 19.3546C29.0773 16.5819 26.7525 14.4589 23.9684 14.4589Z" fill="#5E3032"/>
</svg>
