<svg width="18" height="20" viewBox="0 0 18 20" fill="none" xmlns="http://www.w3.org/2000/svg">
<path d="M14.6313 10.534C14.6224 8.90075 15.3614 7.668 16.8572 6.76012C16.0203 5.56297 14.7559 4.90432 13.0865 4.77525C11.506 4.65064 9.77869 5.69648 9.14652 5.69648C8.47873 5.69648 6.94727 4.81976 5.74525 4.81976C3.26108 4.85981 0.621094 6.80018 0.621094 10.7477C0.621094 11.9137 0.834786 13.1182 1.26217 14.3614C1.83202 15.9947 3.8888 20 6.03463 19.9332C7.15651 19.9065 7.94895 19.1366 9.40918 19.1366C10.8249 19.1366 11.5595 19.9332 12.8104 19.9332C14.9741 19.9021 16.835 16.2617 17.3781 14.6239C14.4755 13.2577 14.6313 10.6186 14.6313 10.534ZM12.1115 3.22652C13.3269 1.7846 13.2156 0.47174 13.18 0C12.107 0.0623053 10.865 0.729862 10.1571 1.55318C9.37802 2.43436 8.91947 3.5247 9.01741 4.753C10.1794 4.84201 11.2389 4.24566 12.1115 3.22652Z" fill="black"/>
</svg>
