<svg width="48" height="48" viewBox="0 0 48 48" fill="none" xmlns="http://www.w3.org/2000/svg">
<rect width="48" height="48" fill="white"/>
<path fill-rule="evenodd" clip-rule="evenodd" d="M22.7878 15.5242C23.1544 15.8898 23.1544 16.4898 22.7878 16.8555L19.7006 19.9398H28.2994L25.2122 16.8555C24.8456 16.4898 24.8456 15.8898 25.2122 15.5242C25.5788 15.1586 26.1712 15.1586 26.5378 15.5242L30.9506 19.9398H34.3125C34.83 19.9398 35.25 20.3617 35.25 20.8773C35.25 21.393 34.83 21.8148 34.3125 21.8148H34.1569L32.7019 29.8211C32.4591 31.1523 31.2947 32.1273 29.9353 32.1273H18.0647C16.7053 32.1273 15.5409 31.1523 15.2981 29.8211L13.8431 21.8148H13.6875C13.17 21.8148 12.75 21.393 12.75 20.8773C12.75 20.3617 13.17 19.9398 13.6875 19.9398H17.0494L21.4622 15.5242C21.8287 15.1586 22.4212 15.1586 22.7878 15.5242ZM15.7481 21.8148L17.1422 29.4836C17.2228 29.9242 17.6119 30.2523 18.0647 30.2523H29.9353C30.3881 30.2523 30.7763 29.9242 30.8569 29.4836L32.2519 21.8148H15.7481ZM19.6266 23.6992C20.1375 23.6148 20.6212 23.9617 20.7056 24.4773L21.1744 27.2898C21.2597 27.7961 20.9147 28.2836 20.4047 28.368C19.8938 28.4523 19.41 28.1055 19.3256 27.5898L18.8569 24.7773C18.7716 24.2711 19.1166 23.7836 19.6266 23.6992ZM28.3734 23.6992C28.8834 23.7836 29.2284 24.2711 29.1431 24.7773L28.6744 27.5898C28.59 28.1055 28.1062 28.4523 27.5953 28.368C27.0853 28.2836 26.7403 27.7961 26.8256 27.2898L27.2944 24.4773C27.3787 23.9617 27.8625 23.6148 28.3734 23.6992ZM24 23.6898C24.5175 23.6898 24.9375 24.1117 24.9375 24.6273V27.4398C24.9375 27.9555 24.5175 28.3773 24 28.3773C23.4825 28.3773 23.0625 27.9555 23.0625 27.4398V24.6273C23.0625 24.1117 23.4825 23.6898 24 23.6898Z" fill="#5E3032"/>
</svg>
