<svg width="19" height="21" viewBox="0 0 19 21" fill="none" xmlns="http://www.w3.org/2000/svg">
<path d="M17.8 4H1" stroke="#5E3023" stroke-width="1.5" stroke-linecap="round" stroke-linejoin="round"/>
<path d="M7 8.79999V14.8" stroke="#5E3023" stroke-width="1.5" stroke-linecap="round" stroke-linejoin="round"/>
<path d="M11.8008 8.79999V14.8" stroke="#5E3023" stroke-width="1.5" stroke-linecap="round" stroke-linejoin="round"/>
<path d="M16.0012 4V18.82C16.0012 19.0269 15.9204 19.2253 15.7766 19.3715C15.6328 19.5178 15.4378 19.6 15.2345 19.6H2.96784C2.76451 19.6 2.5695 19.5178 2.42572 19.3715C2.28195 19.2253 2.20117 19.0269 2.20117 18.82V4" stroke="#5E3023" stroke-width="1.5" stroke-linecap="round" stroke-linejoin="round"/>
<path d="M13.0012 4V2.5C13.0012 2.10218 12.8368 1.72064 12.5443 1.43934C12.2517 1.15804 11.8549 1 11.4412 1H6.76117C6.34743 1 5.95064 1.15804 5.65809 1.43934C5.36553 1.72064 5.20117 2.10218 5.20117 2.5V4" stroke="#5E3023" stroke-width="1.5" stroke-linecap="round" stroke-linejoin="round"/>
</svg>
