<svg width="40" height="40" viewBox="0 0 40 40" fill="none" xmlns="http://www.w3.org/2000/svg">
<path fill-rule="evenodd" clip-rule="evenodd" d="M20.5123 7.5C20.1998 7.5 19.8885 7.51125 19.581 7.53375C19.2098 7.56125 18.816 7.885 18.7348 8.44625L18.616 9.2625C18.4123 10.6675 17.4485 11.7113 16.3773 12.2863C16.216 12.3725 16.0585 12.465 15.9035 12.56C14.8685 13.2037 13.4823 13.5162 12.1635 12.99L11.396 12.6837C10.8685 12.4737 10.3923 12.6512 10.181 12.96C9.83229 13.4712 9.51979 14.01 9.24854 14.5737C9.08604 14.9087 9.16979 15.4087 9.61479 15.76L10.2685 16.2762C11.381 17.1537 11.8048 18.5075 11.766 19.7238L11.7623 20L11.766 20.2762C11.8048 21.4925 11.381 22.8463 10.2685 23.7237L9.61479 24.24C9.16979 24.5912 9.08604 25.0912 9.24854 25.4262C9.51979 25.99 9.83229 26.5287 10.181 27.04C10.3923 27.3487 10.8685 27.5262 11.396 27.3162L12.1635 27.01C13.4823 26.4837 14.8685 26.7975 15.9035 27.44C16.0585 27.535 16.216 27.6275 16.3773 27.7137C17.4485 28.2887 18.4123 29.3325 18.616 30.7375L18.7348 31.5537C18.816 32.115 19.2098 32.4387 19.581 32.4662C19.8885 32.4887 20.1998 32.5 20.5123 32.5C20.8248 32.5 21.136 32.4887 21.4435 32.4662C21.816 32.4387 22.2085 32.115 22.2898 31.5537L22.4085 30.7375C22.6123 29.3325 23.576 28.2887 24.6473 27.7137C24.8085 27.6275 24.966 27.535 25.1223 27.44C26.156 26.7975 27.5423 26.4837 28.861 27.01L29.6285 27.3162C30.156 27.5262 30.6323 27.3487 30.8435 27.04C31.1923 26.5287 31.5048 25.9887 31.776 25.4262C31.9385 25.0912 31.8548 24.5912 31.4098 24.24L30.756 23.7237C29.6435 22.8463 29.2198 21.4925 29.2585 20.2762L29.2623 20L29.2585 19.7238C29.2198 18.5075 29.6435 17.1537 30.756 16.2762L31.4098 15.76C31.8548 15.4087 31.9385 14.9087 31.776 14.5737C31.5048 14.0112 31.1923 13.4712 30.8435 12.96C30.6323 12.6512 30.156 12.4737 29.6285 12.6837L28.861 12.99C27.5423 13.5162 26.156 13.2037 25.1223 12.56C24.966 12.465 24.8085 12.3725 24.6473 12.2863C23.576 11.7113 22.6123 10.6675 22.4085 9.2625L22.2898 8.44625C22.2085 7.885 21.816 7.56125 21.4435 7.53375C21.136 7.51125 20.8248 7.5 20.5123 7.5ZM19.3985 5.04125C19.766 5.01375 20.1373 5 20.5123 5C20.8873 5 21.2585 5.01375 21.626 5.04125C23.3573 5.1675 24.5423 6.5625 24.7635 8.0875L24.8823 8.90375C24.9448 9.33375 25.2673 9.78125 25.8298 10.0837C26.0373 10.195 26.241 10.3125 26.4398 10.4375C26.9823 10.7737 27.531 10.8288 27.9348 10.6675L28.7035 10.3612C30.1323 9.79125 31.9298 10.12 32.9073 11.55C33.326 12.1638 33.7023 12.8113 34.0285 13.4862C34.7823 15.0487 34.166 16.7712 32.9573 17.7238L32.3048 18.2388C31.9635 18.5075 31.7373 19.01 31.7573 19.6462C31.761 19.7638 31.7623 19.8812 31.7623 20C31.7623 20.1187 31.761 20.2362 31.7573 20.3537C31.7373 20.99 31.9635 21.4925 32.3048 21.7612L32.9573 22.2763C34.166 23.2288 34.7823 24.9513 34.0285 26.5138C33.7023 27.1887 33.326 27.8362 32.9073 28.45C31.9298 29.88 30.1323 30.2087 28.7035 29.6388L27.9348 29.3325C27.531 29.1712 26.9823 29.2262 26.4398 29.5625C26.241 29.6875 26.0373 29.805 25.8298 29.9163C25.2673 30.2188 24.9448 30.6663 24.8823 31.0963L24.7635 31.9125C24.5423 33.4375 23.3573 34.8325 21.626 34.9587C21.2585 34.9862 20.8873 35 20.5123 35C20.1373 35 19.766 34.9862 19.3985 34.9587C17.6685 34.8325 16.4823 33.4375 16.261 31.9125L16.1423 31.0963C16.0798 30.6663 15.7573 30.2188 15.1948 29.9163C14.9873 29.805 14.7835 29.6875 14.5848 29.5625C14.0423 29.2262 13.4935 29.1712 13.0898 29.3325L12.321 29.6388C10.8923 30.2087 9.09478 29.88 8.11728 28.45C7.69853 27.8362 7.32228 27.1887 6.99728 26.5138C6.24228 24.9513 6.85853 23.2288 8.06728 22.2763L8.71978 21.7612C9.06103 21.4925 9.28728 20.99 9.26728 20.3537C9.26353 20.2362 9.26228 20.1187 9.26228 20C9.26228 19.8812 9.26353 19.7638 9.26728 19.6462C9.28728 19.01 9.06103 18.5075 8.71978 18.2388L8.06728 17.7238C6.85853 16.7712 6.24228 15.0487 6.99728 13.4862C7.32228 12.8113 7.69853 12.1638 8.11728 11.55C9.09478 10.12 10.8923 9.79125 12.321 10.3612L13.0898 10.6675C13.4935 10.8288 14.0423 10.7737 14.5848 10.4375C14.7835 10.3125 14.9873 10.195 15.1948 10.0837C15.7573 9.78125 16.0798 9.33375 16.1423 8.90375L16.261 8.0875C16.4823 6.5625 17.6685 5.1675 19.3985 5.04125ZM20.5123 16.25C18.441 16.25 16.7623 17.9288 16.7623 20C16.7623 22.0712 18.441 23.75 20.5123 23.75C22.5835 23.75 24.2623 22.0712 24.2623 20C24.2623 17.9288 22.5835 16.25 20.5123 16.25ZM14.2623 20C14.2623 16.5487 17.0598 13.75 20.5123 13.75C23.9635 13.75 26.7623 16.5487 26.7623 20C26.7623 23.4513 23.9635 26.25 20.5123 26.25C17.0598 26.25 14.2623 23.4513 14.2623 20Z" fill="#5E3023"/>
</svg>
