<svg width="24" height="24" viewBox="0 0 24 24" fill="none" xmlns="http://www.w3.org/2000/svg">
<path d="M24 0H0V24H24V0Z" fill="white"/>
<path d="M8.89998 20H4.74383C4.54656 20 4.35736 19.9216 4.21787 19.7821C4.07837 19.6427 4 19.4535 4 19.2562V15.1C3.99967 15.0034 4.01838 14.9077 4.05508 14.8184C4.09177 14.7291 4.14573 14.6478 4.21386 14.5794L15.3713 3.42192C15.4405 3.35164 15.523 3.29582 15.614 3.25773C15.705 3.21963 15.8026 3.20001 15.9013 3.20001C15.9999 3.20001 16.0976 3.21963 16.1885 3.25773C16.2795 3.29582 16.362 3.35164 16.4312 3.42192L20.5781 7.56876C20.6484 7.63798 20.7042 7.72048 20.7423 7.81146C20.7804 7.90245 20.8 8.0001 20.8 8.09874C20.8 8.19738 20.7804 8.29504 20.7423 8.38602C20.7042 8.47701 20.6484 8.55951 20.5781 8.62872L9.42066 19.7862C9.35219 19.8543 9.27096 19.9082 9.18162 19.9449C9.09227 19.9816 8.99657 20.0003 8.89998 20Z" fill="white" stroke="#5E3023" stroke-width="1.5" stroke-linecap="round" stroke-linejoin="round"/>
<path d="M12.8008 6.40002L17.6008 11.2" stroke="#5E3023" stroke-width="1.5" stroke-linecap="round" stroke-linejoin="round"/>
</svg>
