<svg width="10" height="10" viewBox="0 0 10 10" fill="none" xmlns="http://www.w3.org/2000/svg">
<path fill-rule="evenodd" clip-rule="evenodd" d="M5.00115 3.99694L8.79028 0.207814C9.06736 -0.0692713 9.51661 -0.0692713 9.79369 0.207814C10.0708 0.484899 10.0708 0.934143 9.79369 1.21123L6.00456 5.00036L9.79424 8.79003C10.0713 9.06712 10.0713 9.51636 9.79424 9.79345C9.51715 10.0705 9.06791 10.0705 8.79083 9.79345L5.00115 6.00377L1.2122 9.79272C0.93512 10.0698 0.485876 10.0698 0.20879 9.79272C-0.0682948 9.51563 -0.0682947 9.06639 0.208791 8.7893L3.99774 5.00036L0.209339 1.21196C-0.0677461 0.934875 -0.0677461 0.485631 0.209339 0.208546C0.486424 -0.0685393 0.935668 -0.0685393 1.21275 0.208546L5.00115 3.99694Z" fill="#5E3023"/>
</svg>
