<svg width="48" height="48" viewBox="0 0 48 48" fill="none" xmlns="http://www.w3.org/2000/svg">
<path fill-rule="evenodd" clip-rule="evenodd" d="M24 20.5435C20.0085 20.5435 17.6045 22.9282 16.6359 24.1484C16.5124 24.3035 16.5124 24.5011 16.6359 24.6562C17.6045 25.8763 20.0085 28.261 24 28.261C27.9915 28.261 30.3963 25.8763 31.3641 24.6562C31.4876 24.5011 31.4876 24.3035 31.3641 24.1484C30.3963 22.9282 27.9915 20.5435 24 20.5435ZM15.4266 23.1891C16.531 21.7984 19.3317 19 24 19C28.6683 19 31.4698 21.7984 32.5734 23.1891C33.1422 23.906 33.1422 24.8985 32.5734 25.6155C31.4698 27.0062 28.6683 29.8046 24 29.8046C19.3317 29.8046 16.531 27.0062 15.4266 25.6155C14.8578 24.8985 14.8578 23.906 15.4266 23.1891ZM24 22.8588C23.148 22.8588 22.4565 23.5503 22.4565 24.4023C22.4565 25.2543 23.148 25.9458 24 25.9458C24.852 25.9458 25.5435 25.2543 25.5435 24.4023C25.5435 23.5503 24.852 22.8588 24 22.8588ZM20.913 24.4023C20.913 22.6975 22.2952 21.3153 24 21.3153C25.7048 21.3153 27.087 22.6975 27.087 24.4023C27.087 26.1071 25.7048 27.4893 24 27.4893C22.2952 27.4893 20.913 26.1071 20.913 24.4023Z" fill="#5E3023"/>
</svg>
