<svg width="48" height="48" viewBox="0 0 48 48" fill="none" xmlns="http://www.w3.org/2000/svg">
<rect width="48" height="48" fill="white"/>
<path fill-rule="evenodd" clip-rule="evenodd" d="M31.8839 17.5314C30.0746 15.6419 27.1935 15.4753 25.196 17.1443L24 18.1439L22.804 17.1443C20.8065 15.4753 17.9254 15.6419 16.1161 17.5314C14.2734 19.4558 14.1616 22.4976 15.8887 24.461C17.3914 26.1709 19.1424 28.0644 20.7186 29.524C21.5086 30.2552 22.2327 30.8578 22.8451 31.2718C23.5061 31.7178 23.8758 31.8305 24 31.8305C24.1242 31.8305 24.4939 31.7178 25.1549 31.2718C25.7673 30.8578 26.4914 30.2552 27.2814 29.524C28.8576 28.0644 30.6086 26.1709 32.1113 24.461C33.8375 22.4976 33.7266 19.4558 31.8839 17.5314ZM24.0019 15.586C26.7608 13.2825 30.7366 13.5119 33.2347 16.1197C35.7633 18.7615 35.9735 23.0184 33.5184 25.8108C32.0005 27.5377 30.1978 29.49 28.549 31.0174C27.7265 31.7796 26.9203 32.455 26.1914 32.9478C25.5122 33.4067 24.7298 33.8258 24 33.8258C23.2702 33.8258 22.4878 33.4067 21.8086 32.9478C21.0797 32.455 20.2735 31.7796 19.451 31.0174C17.8022 29.49 15.9995 27.5377 14.4816 25.8108C12.0265 23.0184 12.2367 18.7615 14.7653 16.1197C17.2634 13.5119 21.2392 13.2825 23.9981 15.586L24 15.588L24.0019 15.586Z" fill="#5E3032"/>
</svg>
