<svg width="24" height="24" viewBox="0 0 24 24" fill="none" xmlns="http://www.w3.org/2000/svg">
<g clip-path="url(#clip0_233_8831)">
<path d="M23.0996 13.7V22.2H18.1996V14.25C18.1996 12.0167 17.3663 10.9 15.6996 10.9C14.4663 10.9 13.6163 11.5 13.1496 12.7C13.0496 12.9333 12.9996 13.3333 12.9996 13.9V22.2H8.04961C8.08294 13.2333 8.08294 8.28335 8.04961 7.35001H12.9996V9.45001L12.9496 9.50001H12.9996V9.45001C14.0663 7.81668 15.5496 7.00001 17.4496 7.00001C19.1496 7.00001 20.5163 7.56668 21.5496 8.70001C22.5829 9.83335 23.0996 11.5 23.0996 13.7ZM2.89961 0.200012C2.06628 0.200012 1.39128 0.441679 0.874609 0.925012C0.357943 1.40835 0.0996094 2.01668 0.0996094 2.75001C0.0996094 3.48335 0.349609 4.10001 0.849609 4.60001C1.34961 5.10001 1.99961 5.35001 2.79961 5.35001H2.84961C3.68294 5.35001 4.35794 5.10001 4.87461 4.60001C5.39128 4.10001 5.64961 3.48335 5.64961 2.75001C5.61628 2.01668 5.34961 1.40835 4.84961 0.925012C4.34961 0.441679 3.69961 0.200012 2.89961 0.200012ZM0.349609 22.2H5.29961V7.35001H0.349609V22.2Z" fill="#5E3023"/>
</g>
<defs>
<clipPath id="clip0_233_8831">
<rect width="23.2" height="24" fill="white"/>
</clipPath>
</defs>
</svg>
