<svg width="48" height="48" viewBox="0 0 48 48" fill="none" xmlns="http://www.w3.org/2000/svg">
<rect width="48" height="48" fill="white"/>
<path fill-rule="evenodd" clip-rule="evenodd" d="M17.75 23.375C17.75 24.4105 16.9105 25.25 15.875 25.25C14.8395 25.25 14 24.4105 14 23.375C14 22.3395 14.8395 21.5 15.875 21.5C16.9105 21.5 17.75 22.3395 17.75 23.375ZM23.375 25.25C24.4105 25.25 25.25 24.4105 25.25 23.375C25.25 22.3395 24.4105 21.5 23.375 21.5C22.3395 21.5 21.5 22.3395 21.5 23.375C21.5 24.4105 22.3395 25.25 23.375 25.25ZM30.875 25.25C31.9105 25.25 32.75 24.4105 32.75 23.375C32.75 22.3395 31.9105 21.5 30.875 21.5C29.8395 21.5 29 22.3395 29 23.375C29 24.4105 29.8395 25.25 30.875 25.25Z" fill="#5E3023"/>
</svg>
