<svg width="18" height="17" viewBox="0 0 18 17" fill="none" xmlns="http://www.w3.org/2000/svg">
<path d="M16.6235 7.45272C17.3883 6.87422 16.9792 5.65517 16.0203 5.65517H12.1042C11.6657 5.65517 11.2783 5.36948 11.1488 4.95054L9.95538 1.09027C9.66493 0.150754 8.33507 0.150754 8.04462 1.09027L6.85118 4.95054C6.72166 5.36948 6.3343 5.65517 5.89579 5.65517H1.94972C0.99387 5.65517 0.582799 6.86772 1.34158 7.44901L4.61526 9.95689C4.9468 10.2109 5.08558 10.6441 4.96331 11.0435L3.74735 15.0148C3.46249 15.9452 4.53929 16.6931 5.31167 16.1014L8.39186 13.7417C8.75069 13.4669 9.24931 13.4669 9.60814 13.7417L12.6767 16.0925C13.4502 16.685 14.528 15.9342 14.2402 15.0033L13.0071 11.0147C12.8828 10.6126 13.0236 10.1757 13.3592 9.92183L16.6235 7.45272Z" fill="#5E3032"/>
</svg>
