<svg width="48" height="48" viewBox="0 0 48 48" fill="none" xmlns="http://www.w3.org/2000/svg">
<rect width="48" height="48" fill="white"/>
<path fill-rule="evenodd" clip-rule="evenodd" d="M24 35.25C30.2132 35.25 35.25 30.2132 35.25 24C35.25 17.7868 30.2132 12.75 24 12.75C17.7868 12.75 12.75 17.7868 12.75 24C12.75 30.2132 17.7868 35.25 24 35.25ZM16.4539 29.8036C15.2166 28.1971 14.4808 26.1845 14.4808 24C14.4808 18.7427 18.7427 14.4808 24 14.4808C29.2573 14.4808 33.5192 18.7427 33.5192 24C33.5192 26.1849 32.7831 28.1979 31.5454 29.8045C30.9806 29.2923 30.2589 28.9219 29.309 28.58C29.1667 28.5288 29.0209 28.4785 28.8389 28.4173L28.3955 28.2688C27.3175 27.9051 26.936 27.674 26.8473 27.3817C26.8443 27.3718 26.8395 27.3536 26.8328 27.3181C26.7944 27.1156 26.8032 26.8941 26.882 26.7103C26.9285 26.6019 26.9994 26.5053 27.1056 26.4165C28.3012 25.3372 28.9038 24.1209 28.9038 22.4618C28.9038 19.5712 26.6422 17.3654 24 17.3654C21.3396 17.3654 19.0962 19.5336 19.0962 22.4618C19.0962 24.116 19.6832 25.2968 20.8361 26.3826C20.9844 26.5077 21.0589 26.5993 21.1096 26.6953C21.2076 26.8812 21.2202 27.0968 21.1772 27.2952C21.1742 27.3094 21.1716 27.3201 21.17 27.3268C21.1681 27.3349 21.1675 27.3372 21.1691 27.3329C21.0837 27.6362 20.73 27.8542 19.7332 28.1947L19.2225 28.3671C19.0095 28.4394 18.8402 28.4987 18.6745 28.5598C17.7404 28.9046 17.0186 29.2853 16.4539 29.8036ZM17.6325 31.0762C19.3192 32.5949 21.5516 33.5192 24 33.5192C26.4478 33.5192 28.6798 32.5953 30.3664 31.0772C29.9887 30.7425 29.4653 30.4758 28.7229 30.2085C28.5937 30.1621 28.4585 30.1154 28.287 30.0577L27.8423 29.9088C26.2322 29.3656 25.5074 28.9265 25.1955 27.8984C25.1758 27.8372 25.1531 27.7501 25.1323 27.6404C25.0353 27.1286 25.0572 26.574 25.2913 26.0281C25.4436 25.673 25.6776 25.3544 25.9705 25.1104C26.7952 24.3653 27.1731 23.6027 27.1731 22.4618C27.1731 20.5369 25.6959 19.0962 24 19.0962C22.2825 19.0962 20.8269 20.503 20.8269 22.4618C20.8269 23.6016 21.1961 24.3441 21.9813 25.0861C22.2636 25.3198 22.4833 25.5899 22.6404 25.8878C22.9547 26.4837 22.9906 27.099 22.8688 27.6614C22.8439 27.7765 22.8165 27.8681 22.8164 27.858C22.5439 28.87 21.8392 29.3042 20.2926 29.8325L19.7786 30.0061C19.5789 30.0739 19.4229 30.1285 19.2738 30.1835C18.5399 30.4544 18.0134 30.7311 17.6325 31.0762Z" fill="#5E3023"/>
</svg>
