<svg width="48" height="48" viewBox="0 0 48 48" fill="none" xmlns="http://www.w3.org/2000/svg">
<rect width="48" height="48" fill="white"/>
<path fill-rule="evenodd" clip-rule="evenodd" d="M22.0541 29.1081C18.1582 29.1081 15 25.9499 15 22.0541C15 18.1582 18.1582 15 22.0541 15C25.9499 15 29.1081 18.1582 29.1081 22.0541C29.1081 23.7391 28.5173 25.2862 27.5314 26.4994L32.7863 31.7543C33.0712 32.0393 33.0712 32.5013 32.7863 32.7863C32.5013 33.0712 32.0393 33.0712 31.7543 32.7863L26.4994 27.5314C25.2862 28.5173 23.7391 29.1081 22.0541 29.1081ZM22.0541 27.6486C25.1439 27.6486 27.6486 25.1439 27.6486 22.0541C27.6486 18.9642 25.1439 16.4595 22.0541 16.4595C18.9642 16.4595 16.4595 18.9642 16.4595 22.0541C16.4595 25.1439 18.9642 27.6486 22.0541 27.6486Z" fill="#5E3023"/>
</svg>
