<svg width="48" height="48" viewBox="0 0 48 48" fill="none" xmlns="http://www.w3.org/2000/svg">
<rect width="48" height="48" fill="white"/>
<path fill-rule="evenodd" clip-rule="evenodd" d="M24.384 14.625C24.1496 14.625 23.9162 14.6334 23.6855 14.6503C23.4071 14.6709 23.1118 14.9137 23.0508 15.3347L22.9618 15.9469C22.809 17.0006 22.0862 17.7834 21.2827 18.2147C21.1618 18.2794 21.0437 18.3488 20.9274 18.42C20.1512 18.9028 19.1115 19.1372 18.1224 18.7425L17.5468 18.5128C17.1512 18.3553 16.794 18.4884 16.6355 18.72C16.374 19.1034 16.1396 19.5075 15.9362 19.9303C15.8143 20.1816 15.8771 20.5566 16.2108 20.82L16.7012 21.2072C17.5355 21.8653 17.8533 22.8806 17.8243 23.7928L17.8215 24L17.8243 24.2072C17.8533 25.1194 17.5355 26.1347 16.7012 26.7928L16.2108 27.18C15.8771 27.4434 15.8143 27.8184 15.9362 28.0697C16.1396 28.4925 16.374 28.8966 16.6355 29.28C16.794 29.5116 17.1512 29.6447 17.5468 29.4872L18.1224 29.2575C19.1115 28.8628 20.1512 29.0981 20.9274 29.58C21.0437 29.6512 21.1618 29.7206 21.2827 29.7853C22.0862 30.2166 22.809 30.9994 22.9618 32.0531L23.0508 32.6653C23.1118 33.0863 23.4071 33.3291 23.6855 33.3497C23.9162 33.3666 24.1496 33.375 24.384 33.375C24.6183 33.375 24.8518 33.3666 25.0824 33.3497C25.3618 33.3291 25.6562 33.0863 25.7171 32.6653L25.8062 32.0531C25.959 30.9994 26.6818 30.2166 27.4852 29.7853C27.6062 29.7206 27.7243 29.6512 27.8415 29.58C28.6168 29.0981 29.6565 28.8628 30.6455 29.2575L31.2212 29.4872C31.6168 29.6447 31.974 29.5116 32.1324 29.28C32.394 28.8966 32.6283 28.4916 32.8318 28.0697C32.9537 27.8184 32.8908 27.4434 32.5571 27.18L32.0668 26.7928C31.2324 26.1347 30.9146 25.1194 30.9437 24.2072L30.9465 24L30.9437 23.7928C30.9146 22.8806 31.2324 21.8653 32.0668 21.2072L32.5571 20.82C32.8908 20.5566 32.9537 20.1816 32.8318 19.9303C32.6283 19.5084 32.394 19.1034 32.1324 18.72C31.974 18.4884 31.6168 18.3553 31.2212 18.5128L30.6455 18.7425C29.6565 19.1372 28.6168 18.9028 27.8415 18.42C27.7243 18.3488 27.6062 18.2794 27.4852 18.2147C26.6818 17.7834 25.959 17.0006 25.8062 15.9469L25.7171 15.3347C25.6562 14.9137 25.3618 14.6709 25.0824 14.6503C24.8518 14.6334 24.6183 14.625 24.384 14.625ZM23.5487 12.7809C23.8243 12.7603 24.1027 12.75 24.384 12.75C24.6652 12.75 24.9437 12.7603 25.2193 12.7809C26.5177 12.8756 27.4065 13.9219 27.5724 15.0656L27.6615 15.6778C27.7083 16.0003 27.9502 16.3359 28.3721 16.5628C28.5277 16.6463 28.6805 16.7344 28.8296 16.8281C29.2365 17.0803 29.648 17.1216 29.9508 17.0006L30.5274 16.7709C31.599 16.3434 32.9471 16.59 33.6802 17.6625C33.9943 18.1228 34.2765 18.6084 34.5212 19.1147C35.0865 20.2866 34.6243 21.5784 33.7177 22.2928L33.2283 22.6791C32.9724 22.8806 32.8027 23.2575 32.8177 23.7347C32.8205 23.8228 32.8215 23.9109 32.8215 24C32.8215 24.0891 32.8205 24.1772 32.8177 24.2653C32.8027 24.7425 32.9724 25.1194 33.2283 25.3209L33.7177 25.7072C34.6243 26.4216 35.0865 27.7134 34.5212 28.8853C34.2765 29.3916 33.9943 29.8772 33.6802 30.3375C32.9471 31.41 31.599 31.6566 30.5274 31.2291L29.9508 30.9994C29.648 30.8784 29.2365 30.9197 28.8296 31.1719C28.6805 31.2656 28.5277 31.3538 28.3721 31.4372C27.9502 31.6641 27.7083 31.9997 27.6615 32.3222L27.5724 32.9344C27.4065 34.0781 26.5177 35.1244 25.2193 35.2191C24.9437 35.2397 24.6652 35.25 24.384 35.25C24.1027 35.25 23.8243 35.2397 23.5487 35.2191C22.2512 35.1244 21.3615 34.0781 21.1955 32.9344L21.1065 32.3222C21.0596 31.9997 20.8177 31.6641 20.3958 31.4372C20.2402 31.3538 20.0874 31.2656 19.9383 31.1719C19.5315 30.9197 19.1199 30.8784 18.8171 30.9994L18.2405 31.2291C17.169 31.6566 15.8208 31.41 15.0877 30.3375C14.7737 29.8772 14.4915 29.3916 14.2477 28.8853C13.6815 27.7134 14.1437 26.4216 15.0502 25.7072L15.5396 25.3209C15.7955 25.1194 15.9652 24.7425 15.9502 24.2653C15.9474 24.1772 15.9465 24.0891 15.9465 24C15.9465 23.9109 15.9474 23.8228 15.9502 23.7347C15.9652 23.2575 15.7955 22.8806 15.5396 22.6791L15.0502 22.2928C14.1437 21.5784 13.6815 20.2866 14.2477 19.1147C14.4915 18.6084 14.7737 18.1228 15.0877 17.6625C15.8208 16.59 17.169 16.3434 18.2405 16.7709L18.8171 17.0006C19.1199 17.1216 19.5315 17.0803 19.9383 16.8281C20.0874 16.7344 20.2402 16.6463 20.3958 16.5628C20.8177 16.3359 21.0596 16.0003 21.1065 15.6778L21.1955 15.0656C21.3615 13.9219 22.2512 12.8756 23.5487 12.7809ZM24.384 21.1875C22.8305 21.1875 21.5715 22.4466 21.5715 24C21.5715 25.5534 22.8305 26.8125 24.384 26.8125C25.9374 26.8125 27.1965 25.5534 27.1965 24C27.1965 22.4466 25.9374 21.1875 24.384 21.1875ZM19.6965 24C19.6965 21.4116 21.7946 19.3125 24.384 19.3125C26.9724 19.3125 29.0715 21.4116 29.0715 24C29.0715 26.5884 26.9724 28.6875 24.384 28.6875C21.7946 28.6875 19.6965 26.5884 19.6965 24Z" fill="#5E3023"/>
</svg>
