<svg width="24" height="24" viewBox="0 0 24 24" fill="none" xmlns="http://www.w3.org/2000/svg">
<path d="M24 4.55859C23.6719 5.05078 23.3008 5.50781 22.8867 5.92969C22.4727 6.35156 22.0234 6.74219 21.5391 7.10156C21.5469 7.21094 21.5508 7.31641 21.5508 7.41797C21.5508 7.51953 21.5547 7.62891 21.5625 7.74609C21.5625 8.73047 21.457 9.70312 21.2461 10.6641C21.0352 11.625 20.7305 12.5547 20.332 13.4531C19.7539 14.7578 19.0312 15.9219 18.1641 16.9453C17.2969 17.9688 16.3164 18.8398 15.2227 19.5586C14.1289 20.2773 12.9297 20.8203 11.625 21.1875C10.3203 21.5547 8.96094 21.7422 7.54688 21.75C6.20312 21.75 4.89453 21.5664 3.62109 21.1992C2.34766 20.832 1.14062 20.2773 0 19.5352C0.382812 19.582 0.773438 19.6055 1.17188 19.6055C2.28906 19.6055 3.36719 19.4258 4.40625 19.0664C5.44531 18.707 6.40625 18.1836 7.28906 17.4961C6.76562 17.4883 6.26172 17.4023 5.77734 17.2383C5.29297 17.0742 4.85156 16.8398 4.45312 16.5352C4.05469 16.2305 3.70312 15.8711 3.39844 15.457C3.09375 15.043 2.85938 14.5859 2.69531 14.0859C2.85156 14.1094 3.00391 14.1289 3.15234 14.1445C3.30078 14.1602 3.45703 14.168 3.62109 14.168C4.05859 14.168 4.48828 14.1094 4.91016 13.9922C4.33203 13.875 3.80469 13.668 3.32812 13.3711C2.85156 13.0742 2.43359 12.7148 2.07422 12.293C1.71484 11.8711 1.44141 11.3906 1.25391 10.8516C1.06641 10.3125 0.96875 9.75 0.960938 9.16406V9.10547C1.64844 9.49609 2.39453 9.70312 3.19922 9.72656C2.85547 9.49219 2.55078 9.22656 2.28516 8.92969C2.01953 8.63281 1.78906 8.30469 1.59375 7.94531C1.39844 7.58594 1.25391 7.21484 1.16016 6.83203C1.06641 6.44922 1.01562 6.04688 1.00781 5.625C1.00781 5.1875 1.0625 4.76172 1.17188 4.34766C1.28125 3.93359 1.44922 3.53516 1.67578 3.15234C2.30078 3.92578 2.99609 4.61719 3.76172 5.22656C4.52734 5.83594 5.33984 6.36328 6.19922 6.80859C7.05859 7.25391 7.96484 7.59766 8.91797 7.83984C9.87109 8.08203 10.8398 8.23438 11.8242 8.29688C11.7773 8.11719 11.7461 7.93359 11.7305 7.74609C11.7148 7.55859 11.7031 7.36719 11.6953 7.17188C11.6953 6.49219 11.8242 5.85547 12.082 5.26172C12.3398 4.66797 12.6914 4.14453 13.1367 3.69141C13.582 3.23828 14.1016 2.88672 14.6953 2.63672C15.2891 2.38672 15.9297 2.25781 16.6172 2.25C17.3047 2.25 17.957 2.38281 18.5742 2.64844C19.1914 2.91406 19.7383 3.30078 20.2148 3.80859C20.7695 3.69922 21.3047 3.54688 21.8203 3.35156C22.3359 3.15625 22.8398 2.91016 23.332 2.61328C23.1523 3.18359 22.8789 3.70312 22.5117 4.17188C22.1445 4.64062 21.6992 5.02734 21.1758 5.33203C22.1602 5.21484 23.1016 4.95703 24 4.55859Z" fill="#5E3023"/>
</svg>
