<svg width="26" height="24" viewBox="0 0 26 24" fill="none" xmlns="http://www.w3.org/2000/svg">
<path d="M8.37325 18.75C10.0944 18.75 11.4897 17.4069 11.4897 15.75C11.4897 14.0931 10.0944 12.75 8.37325 12.75C6.6521 12.75 5.25684 14.0931 5.25684 15.75C5.25684 17.4069 6.6521 18.75 8.37325 18.75Z" stroke="#191C1F" stroke-width="1.5" stroke-linecap="round" stroke-linejoin="round"/>
<path d="M3.69824 21C4.24253 20.3014 4.9483 19.7344 5.75967 19.3438C6.57104 18.9533 7.46573 18.75 8.37287 18.75C9.28001 18.75 10.1747 18.9533 10.9861 19.3438C11.7974 19.7344 12.5032 20.3014 13.0475 21" stroke="#191C1F" stroke-width="1.5" stroke-linecap="round" stroke-linejoin="round"/>
<path d="M8.37325 9C10.0944 9 11.4897 7.65685 11.4897 6C11.4897 4.34315 10.0944 3 8.37325 3C6.6521 3 5.25684 4.34315 5.25684 6C5.25684 7.65685 6.6521 9 8.37325 9Z" stroke="#191C1F" stroke-width="1.5" stroke-linecap="round" stroke-linejoin="round"/>
<path d="M3.69824 11.25C4.24253 10.5514 4.9483 9.98438 5.75967 9.59385C6.57104 9.20332 7.46573 9 8.37287 9C9.28001 9 10.1747 9.20332 10.9861 9.59385C11.7974 9.98438 12.5032 10.5514 13.0475 11.25" stroke="#191C1F" stroke-width="1.5" stroke-linecap="round" stroke-linejoin="round"/>
<path d="M17.7229 18.75C19.444 18.75 20.8393 17.4069 20.8393 15.75C20.8393 14.0931 19.444 12.75 17.7229 12.75C16.0017 12.75 14.6064 14.0931 14.6064 15.75C14.6064 17.4069 16.0017 18.75 17.7229 18.75Z" stroke="#191C1F" stroke-width="1.5" stroke-linecap="round" stroke-linejoin="round"/>
<path d="M13.0479 21C13.5921 20.3014 14.2979 19.7344 15.1093 19.3438C15.9207 18.9533 16.8153 18.75 17.7225 18.75C18.6296 18.75 19.5243 18.9533 20.3357 19.3438C21.147 19.7344 21.8528 20.3014 22.3971 21" stroke="#191C1F" stroke-width="1.5" stroke-linecap="round" stroke-linejoin="round"/>
<path d="M17.7229 9C19.444 9 20.8393 7.65685 20.8393 6C20.8393 4.34315 19.444 3 17.7229 3C16.0017 3 14.6064 4.34315 14.6064 6C14.6064 7.65685 16.0017 9 17.7229 9Z" stroke="#191C1F" stroke-width="1.5" stroke-linecap="round" stroke-linejoin="round"/>
<path d="M13.0479 11.25C13.5921 10.5514 14.2979 9.98438 15.1093 9.59385C15.9207 9.20332 16.8153 9 17.7225 9C18.6296 9 19.5243 9.20332 20.3357 9.59385C21.147 9.98438 21.8528 10.5514 22.3971 11.25" stroke="#191C1F" stroke-width="1.5" stroke-linecap="round" stroke-linejoin="round"/>
</svg>
