<svg width="26" height="24" viewBox="0 0 26 24" fill="none" xmlns="http://www.w3.org/2000/svg">
<path d="M6.42549 6.75C7.07092 6.75 7.59415 6.24632 7.59415 5.625C7.59415 5.00368 7.07092 4.5 6.42549 4.5C5.78006 4.5 5.25684 5.00368 5.25684 5.625C5.25684 6.24632 5.78006 6.75 6.42549 6.75Z" fill="#191C1F"/>
<path d="M13.0476 6.75C13.693 6.75 14.2162 6.24632 14.2162 5.625C14.2162 5.00368 13.693 4.5 13.0476 4.5C12.4021 4.5 11.8789 5.00368 11.8789 5.625C11.8789 6.24632 12.4021 6.75 13.0476 6.75Z" fill="#191C1F"/>
<path d="M19.6706 6.75C20.316 6.75 20.8393 6.24632 20.8393 5.625C20.8393 5.00368 20.316 4.5 19.6706 4.5C19.0252 4.5 18.502 5.00368 18.502 5.625C18.502 6.24632 19.0252 6.75 19.6706 6.75Z" fill="#191C1F"/>
<path d="M6.42549 13.125C7.07092 13.125 7.59415 12.6213 7.59415 12C7.59415 11.3787 7.07092 10.875 6.42549 10.875C5.78006 10.875 5.25684 11.3787 5.25684 12C5.25684 12.6213 5.78006 13.125 6.42549 13.125Z" fill="#191C1F"/>
<path d="M13.0476 13.125C13.693 13.125 14.2162 12.6213 14.2162 12C14.2162 11.3787 13.693 10.875 13.0476 10.875C12.4021 10.875 11.8789 11.3787 11.8789 12C11.8789 12.6213 12.4021 13.125 13.0476 13.125Z" fill="#191C1F"/>
<path d="M19.6706 13.125C20.316 13.125 20.8393 12.6213 20.8393 12C20.8393 11.3787 20.316 10.875 19.6706 10.875C19.0252 10.875 18.502 11.3787 18.502 12C18.502 12.6213 19.0252 13.125 19.6706 13.125Z" fill="#191C1F"/>
<path d="M6.42549 19.5C7.07092 19.5 7.59415 18.9963 7.59415 18.375C7.59415 17.7537 7.07092 17.25 6.42549 17.25C5.78006 17.25 5.25684 17.7537 5.25684 18.375C5.25684 18.9963 5.78006 19.5 6.42549 19.5Z" fill="#191C1F"/>
<path d="M13.0476 19.5C13.693 19.5 14.2162 18.9963 14.2162 18.375C14.2162 17.7537 13.693 17.25 13.0476 17.25C12.4021 17.25 11.8789 17.7537 11.8789 18.375C11.8789 18.9963 12.4021 19.5 13.0476 19.5Z" fill="#191C1F"/>
<path d="M19.6706 19.5C20.316 19.5 20.8393 18.9963 20.8393 18.375C20.8393 17.7537 20.316 17.25 19.6706 17.25C19.0252 17.25 18.502 17.7537 18.502 18.375C18.502 18.9963 19.0252 19.5 19.6706 19.5Z" fill="#191C1F"/>
</svg>
