<svg width="26" height="24" viewBox="0 0 26 24" fill="none" xmlns="http://www.w3.org/2000/svg">
<path d="M9.15207 15C11.9489 15 14.2162 12.8174 14.2162 10.125C14.2162 7.43261 11.9489 5.25 9.15207 5.25C6.3552 5.25 4.08789 7.43261 4.08789 10.125C4.08789 12.8174 6.3552 15 9.15207 15Z" stroke="#191C1F" stroke-width="1.5" stroke-miterlimit="10"/>
<path d="M15.7158 5.42813C16.1635 5.31124 16.6251 5.25136 17.089 5.25C18.4321 5.25 19.7202 5.76361 20.6699 6.67785C21.6196 7.59209 22.1532 8.83207 22.1532 10.125C22.1532 11.4179 21.6196 12.6579 20.6699 13.5721C19.7202 14.4864 18.4321 15 17.089 15" stroke="#191C1F" stroke-width="1.5" stroke-linecap="round" stroke-linejoin="round"/>
<path d="M2.14062 18.5063C2.93136 17.4231 3.9813 16.539 5.20173 15.9287C6.42217 15.3184 7.77727 14.9998 9.15257 14.9998C10.5279 14.9998 11.883 15.3184 13.1034 15.9287C14.3238 16.539 15.3738 17.4231 16.1645 18.5063" stroke="#191C1F" stroke-width="1.5" stroke-linecap="round" stroke-linejoin="round"/>
<path d="M17.0898 15C18.4653 14.9992 19.8206 15.3174 21.0412 15.9277C22.2618 16.5381 23.3116 17.4225 24.1018 18.5063" stroke="#191C1F" stroke-width="1.5" stroke-linecap="round" stroke-linejoin="round"/>
</svg>
