<svg width="26" height="24" viewBox="0 0 26 24" fill="none" xmlns="http://www.w3.org/2000/svg">
<path d="M22.3967 16.6219V7.37812C22.396 7.2446 22.3587 7.11362 22.2886 6.99841C22.2185 6.88319 22.1181 6.78781 21.9975 6.72187L13.4273 2.08125C13.3118 2.01706 13.1808 1.98328 13.0475 1.98328C12.9142 1.98328 12.7832 2.01706 12.6677 2.08125L4.09753 6.72187C3.97692 6.78781 3.8765 6.88319 3.80639 6.99841C3.73629 7.11362 3.69899 7.2446 3.69824 7.37812V16.6219C3.69899 16.7554 3.73629 16.8864 3.80639 17.0016C3.8765 17.1168 3.97692 17.2122 4.09753 17.2781L12.6677 21.9187C12.7832 21.9829 12.9142 22.0167 13.0475 22.0167C13.1808 22.0167 13.3118 21.9829 13.4273 21.9187L21.9975 17.2781C22.1181 17.2122 22.2185 17.1168 22.2886 17.0016C22.3587 16.8864 22.396 16.7554 22.3967 16.6219V16.6219Z" stroke="#191C1F" stroke-width="1.5" stroke-linecap="round" stroke-linejoin="round"/>
<path d="M17.8197 14.2969V9.42188L8.37305 4.40625" stroke="#191C1F" stroke-width="1.5" stroke-linecap="round" stroke-linejoin="round"/>
<path d="M22.2899 6.99377L13.1354 12L3.80566 6.99377" stroke="#191C1F" stroke-width="1.5" stroke-linecap="round" stroke-linejoin="round"/>
<path d="M13.1355 12L13.0479 22.0125" stroke="#191C1F" stroke-width="1.5" stroke-linecap="round" stroke-linejoin="round"/>
</svg>
