<svg width="26" height="24" viewBox="0 0 26 24" fill="none" xmlns="http://www.w3.org/2000/svg">
<path d="M9.15234 21.75H16.9434" stroke="#191C1F" stroke-width="1.5" stroke-linecap="round" stroke-linejoin="round"/>
<path d="M8.24673 15.6562C7.3192 14.9619 6.56798 14.0735 6.04997 13.0583C5.53196 12.0432 5.26077 10.9278 5.25692 9.79678C5.23744 5.72803 8.63628 2.34366 12.8629 2.24991C14.4987 2.21258 16.1052 2.67198 17.4545 3.56294C18.8039 4.45391 19.8276 5.73121 20.3804 7.21371C20.9333 8.6962 20.9872 10.3086 20.5346 11.8223C20.0821 13.336 19.1459 14.6741 17.8589 15.6468C17.5746 15.8583 17.3444 16.1296 17.1857 16.44C17.027 16.7503 16.9442 17.0915 16.9435 17.4374V17.9999C16.9435 18.1988 16.8614 18.3896 16.7153 18.5302C16.5692 18.6709 16.371 18.7499 16.1644 18.7499H9.93155C9.72491 18.7499 9.52675 18.6709 9.38064 18.5302C9.23453 18.3896 9.15244 18.1988 9.15244 17.9999V17.4374C9.15 17.0941 9.06733 16.7557 8.91054 16.4474C8.75375 16.139 8.52688 15.8686 8.24673 15.6562V15.6562Z" stroke="#191C1F" stroke-width="1.5" stroke-linecap="round" stroke-linejoin="round"/>
<path d="M13.8369 5.32495C14.7892 5.48034 15.6678 5.91642 16.3516 6.57301C17.0354 7.2296 17.4907 8.07431 17.6545 8.99058" stroke="#191C1F" stroke-width="1.5" stroke-linecap="round" stroke-linejoin="round"/>
</svg>
