<svg width="26" height="24" viewBox="0 0 26 24" fill="none" xmlns="http://www.w3.org/2000/svg">
<path d="M5.25684 13.0875V19.5C5.25684 19.6989 5.33892 19.8897 5.48503 20.0304C5.63114 20.171 5.82931 20.25 6.03594 20.25H20.0598C20.2665 20.25 20.4646 20.171 20.6107 20.0304C20.7568 19.8897 20.8389 19.6989 20.8389 19.5V13.0875" stroke="#191C1F" stroke-width="1.5" stroke-linecap="round" stroke-linejoin="round"/>
<path d="M5.84078 3.75H20.2542C20.4232 3.75134 20.5873 3.8049 20.7223 3.9028C20.8573 4.00069 20.9561 4.13774 21.0041 4.29375L22.3967 9H3.69824L5.09089 4.29375C5.13888 4.13774 5.23765 4.00069 5.37266 3.9028C5.50766 3.8049 5.67176 3.75134 5.84078 3.75V3.75Z" stroke="#191C1F" stroke-width="1.5" stroke-linecap="round" stroke-linejoin="round"/>
<path d="M9.93108 9V10.5C9.93108 11.2956 9.60274 12.0587 9.0183 12.6213C8.43386 13.1839 7.64119 13.5 6.81466 13.5C5.98813 13.5 5.19546 13.1839 4.61102 12.6213C4.02658 12.0587 3.69824 11.2956 3.69824 10.5V9" stroke="#191C1F" stroke-width="1.5" stroke-linecap="round" stroke-linejoin="round"/>
<path d="M16.1645 9V10.5C16.1645 11.2956 15.8361 12.0587 15.2517 12.6213C14.6673 13.1839 13.8746 13.5 13.0481 13.5C12.2215 13.5 11.4289 13.1839 10.8444 12.6213C10.26 12.0587 9.93164 11.2956 9.93164 10.5V9" stroke="#191C1F" stroke-width="1.5" stroke-linecap="round" stroke-linejoin="round"/>
<path d="M22.3969 9V10.5C22.3969 11.2956 22.0686 12.0587 21.4841 12.6213C20.8997 13.1839 20.107 13.5 19.2805 13.5C18.454 13.5 17.6613 13.1839 17.0768 12.6213C16.4924 12.0587 16.1641 11.2956 16.1641 10.5V9" stroke="#191C1F" stroke-width="1.5" stroke-linecap="round" stroke-linejoin="round"/>
</svg>
