<svg width="43" height="43" viewBox="0 0 43 43" fill="none" xmlns="http://www.w3.org/2000/svg">
<path opacity="0.25" d="M41.4353 18.0112C42.5825 17.1434 41.9688 15.3149 40.5304 15.3149H27.8437C27.1859 15.3149 26.6049 14.8863 26.4106 14.2579L22.5083 1.6354C22.0726 0.226127 20.0778 0.226132 19.6421 1.6354L15.7398 14.2579C15.5455 14.8863 14.9644 15.3149 14.3067 15.3149H1.57497C0.141198 15.3149 -0.475411 17.1337 0.662767 18.0056L11.0769 25.9836C11.5742 26.3646 11.7824 27.0145 11.599 27.6135L7.6926 40.3718C7.26531 41.7673 8.8805 42.8893 10.0391 42.0017L20.163 34.246C20.7012 33.8337 21.4492 33.8337 21.9874 34.246L32.0939 41.9883C33.2541 42.8772 34.8708 41.7509 34.4391 40.3545L30.4773 27.5396C30.2908 26.9365 30.502 26.2811 31.0055 25.9003L41.4353 18.0112Z" fill="black"/>
</svg>
