<svg width="43" height="43" viewBox="0 0 43 43" fill="none" xmlns="http://www.w3.org/2000/svg">
<path d="M42.2849 18.0112C43.4321 17.1434 42.8185 15.3149 41.38 15.3149H28.6933C28.0356 15.3149 27.4545 14.8863 27.2602 14.2579L23.3579 1.6354C22.9222 0.226127 20.9274 0.226132 20.4917 1.6354L16.5894 14.2579C16.3951 14.8863 15.8141 15.3149 15.1563 15.3149H2.42458C0.990808 15.3149 0.374198 17.1337 1.51238 18.0056L11.9265 25.9836C12.4238 26.3646 12.632 27.0145 12.4486 27.6135L8.54221 40.3718C8.11492 41.7673 9.73011 42.8893 10.8887 42.0017L21.0126 34.246C21.5508 33.8337 22.2988 33.8337 22.837 34.246L32.9435 41.9883C34.1037 42.8772 35.7204 41.7509 35.2887 40.3545L31.3269 27.5396C31.1404 26.9365 31.3516 26.2811 31.8551 25.9003L42.2849 18.0112Z" fill="#5E3023"/>
</svg>
