<svg width="8" height="8" viewBox="0 0 8 8" fill="none" xmlns="http://www.w3.org/2000/svg">
<path fill-rule="evenodd" clip-rule="evenodd" d="M3.99972 3.19736L7.03084 0.166235C7.25249 -0.0554117 7.61185 -0.0554117 7.8335 0.166235C8.05515 0.387882 8.05515 0.747243 7.8335 0.96889L4.80237 4.00002L7.83342 7.03106C8.05507 7.25271 8.05507 7.61207 7.83342 7.83372C7.61177 8.05536 7.25241 8.05536 7.03076 7.83372L3.99972 4.80267L0.96897 7.83342C0.747323 8.05507 0.387962 8.05507 0.166315 7.83342C-0.0553318 7.61177 -0.0553318 7.25241 0.166315 7.03076L3.19706 4.00002L0.166235 0.969186C-0.0554117 0.747539 -0.0554117 0.388179 0.166235 0.166532C0.387882 -0.055115 0.747243 -0.055115 0.96889 0.166532L3.99972 3.19736Z" fill="#5E3023"/>
</svg>
