<svg width="30" height="31" viewBox="0 0 30 31" fill="none" xmlns="http://www.w3.org/2000/svg">
<path fill-rule="evenodd" clip-rule="evenodd" d="M22.8834 9.15725C21.0741 7.25841 18.193 7.09098 16.1955 8.76826L14.9995 9.77282L13.8035 8.76826C11.806 7.09098 8.92485 7.25841 7.11556 9.15725C5.27282 11.0912 5.16106 14.148 6.8882 16.121C8.39085 17.8394 10.1419 19.7422 11.7181 21.209C12.5081 21.9439 13.2322 22.5494 13.8445 22.9655C14.5056 23.4136 14.8753 23.5269 14.9995 23.5269C15.1237 23.5269 15.4933 23.4136 16.1544 22.9655C16.7667 22.5494 17.4908 21.9439 18.2808 21.209C19.8571 19.7422 21.6081 17.8394 23.1107 16.121C24.8369 14.148 24.7261 11.0912 22.8834 9.15725ZM15.0019 7.20222C17.7608 4.88732 21.7366 5.11791 24.2347 7.73859C26.7633 10.3934 26.9735 14.6713 24.5184 17.4774C23.0005 19.2128 21.1978 21.1749 19.549 22.7098C18.7265 23.4757 17.9203 24.1544 17.1914 24.6497C16.5122 25.1109 15.7298 25.532 15 25.532C14.2702 25.532 13.4878 25.1109 12.8086 24.6497C12.0797 24.1544 11.2735 23.4757 10.451 22.7098C8.80215 21.1749 6.99954 19.2128 5.48161 17.4774C3.02654 14.6713 3.2367 10.3934 5.76532 7.73859C8.26338 5.11791 12.2392 4.88732 14.9981 7.20222L15 7.20423L15.0019 7.20222Z" fill="#5E3023"/>
<path d="M11 6.5L9 7L6.5 8L4.5 11.5L5.5 16L12.5 23L15 25L17.5 23L24.5 16L25.5 11.5L23.5 8L21 7L18.5 6.5L15 8L11 6.5Z" fill="#5E3023"/>
</svg>
