<svg width="30" height="31" viewBox="0 0 30 31" fill="none" xmlns="http://www.w3.org/2000/svg">
<path fill-rule="evenodd" clip-rule="evenodd" d="M22.8834 9.16497C21.0741 7.26613 18.193 7.09871 16.1955 8.77598L14.9995 9.78054L13.8035 8.77598C11.806 7.09871 8.92485 7.26613 7.11556 9.16497C5.27282 11.0989 5.16106 14.1557 6.8882 16.1287C8.39085 17.8471 10.1419 19.75 11.7181 21.2167C12.5081 21.9516 13.2322 22.5571 13.8445 22.9732C14.5056 23.4213 14.8753 23.5346 14.9995 23.5346C15.1237 23.5346 15.4933 23.4213 16.1544 22.9732C16.7667 22.5571 17.4908 21.9516 18.2808 21.2167C19.8571 19.75 21.6081 17.8471 23.1107 16.1287C24.8369 14.1557 24.7261 11.0989 22.8834 9.16497ZM15.0019 7.20994C17.7608 4.89504 21.7366 5.12563 24.2347 7.74631C26.7633 10.4011 26.9735 14.679 24.5184 17.4851C23.0005 19.2206 21.1978 21.1826 19.549 22.7175C18.7265 23.4834 17.9203 24.1622 17.1914 24.6574C16.5122 25.1186 15.7298 25.5397 15 25.5397C14.2702 25.5397 13.4878 25.1186 12.8086 24.6574C12.0797 24.1622 11.2735 23.4834 10.451 22.7175C8.80215 21.1826 6.99954 19.2206 5.48161 17.4851C3.02654 14.679 3.2367 10.4011 5.76532 7.74631C8.26338 5.12563 12.2392 4.89504 14.9981 7.20994L15 7.21195L15.0019 7.20994Z" fill="#5E3023"/>
</svg>
