<svg width="40" height="40" viewBox="0 0 40 40" fill="none" xmlns="http://www.w3.org/2000/svg">
<rect width="40" height="40" rx="20" fill="white"/>
<path fill-rule="evenodd" clip-rule="evenodd" d="M19.6654 10.4711C18.1544 10.4711 16.9297 11.6931 16.9297 13.2068H22.4011C22.4011 11.6931 21.1764 10.4711 19.6654 10.4711ZM15.1056 13.2069H13.9913C12.6043 13.2069 11.4371 14.2465 11.2748 15.6235L9.88046 27.4781C9.68896 29.1013 10.9592 30.533 12.597 30.533H26.7332C28.371 30.533 29.6412 29.1013 29.4497 27.4781L28.0555 15.6235C27.8931 14.2465 26.7259 13.2069 25.3389 13.2069H24.2246C24.2246 10.6901 22.1828 8.64746 19.6651 8.64746C17.1464 8.64746 15.1056 10.6901 15.1056 13.2069Z" fill="#5E3023"/>
</svg>
