<svg width="56" height="56" viewBox="0 0 56 56" fill="none" xmlns="http://www.w3.org/2000/svg">
<path fill-rule="evenodd" clip-rule="evenodd" d="M27.7209 17.9761C22.0305 17.9761 17.4185 22.5882 17.4185 28.2785C17.4185 30.2543 17.9737 32.0973 18.9364 33.6644L19.2466 34.1692L17.3086 38.6908L21.8302 36.7528L22.3362 37.063C23.9021 38.0258 25.7451 38.5809 27.7209 38.5809C33.4113 38.5809 38.0233 33.9689 38.0233 28.2785C38.0233 22.5882 33.4113 17.9761 27.7209 17.9761ZM15.1293 28.2785C15.1293 21.3244 20.767 15.6867 27.7211 15.6867C34.6752 15.6867 40.3129 21.3244 40.3129 28.2785C40.3129 35.2327 34.6752 40.8704 27.7211 40.8704C25.5255 40.8704 23.4582 40.3072 21.6587 39.3181L18.2108 40.796C16.3106 41.6098 14.3898 39.689 15.2037 37.7888L16.6815 34.3409C15.6925 32.5414 15.1293 30.4741 15.1293 28.2785ZM21.9972 25.9891C21.9972 25.3572 22.5101 24.8444 23.1419 24.8444H26.5761C27.208 24.8444 27.7208 25.3572 27.7208 25.9891C27.7208 26.621 27.208 27.1338 26.5761 27.1338H23.1419C22.5101 27.1338 21.9972 26.621 21.9972 25.9891ZM21.9972 30.5679C21.9972 29.9361 22.5101 29.4232 23.1419 29.4232H32.2996C32.9315 29.4232 33.4443 29.9361 33.4443 30.5679C33.4443 31.1998 32.9315 31.7127 32.2996 31.7127H23.1419C22.5101 31.7127 21.9972 31.1998 21.9972 30.5679Z" fill="#5E3023"/>
</svg>
