<svg width="83" height="83" viewBox="0 0 83 83" fill="none" xmlns="http://www.w3.org/2000/svg">
<rect width="83" height="83" rx="20" fill="white"/>
<path fill-rule="evenodd" clip-rule="evenodd" d="M41.444 21.625C47.9241 21.625 53.335 26.5663 53.9217 33.0198L54.8202 42.904C54.8991 43.7716 55.4213 44.5368 56.2006 44.9264L56.2077 44.9299C57.9526 45.8024 59.0548 47.5858 59.0548 49.5366V50.3054C59.0548 52.8064 57.0273 54.8339 54.5263 54.8339H46.9788V55.8402C46.9788 58.897 44.5008 61.375 41.444 61.375C38.3872 61.375 35.9092 58.897 35.9092 55.8402V54.8339H28.3617C25.8607 54.8339 23.8333 52.8064 23.8333 50.3054V49.5366C23.8333 47.5858 24.9355 45.8024 26.6803 44.9299L26.6874 44.9264C27.4667 44.5368 27.9889 43.7716 28.0678 42.904L28.9663 33.0198C29.553 26.5663 34.9639 21.625 41.444 21.625ZM38.9282 54.8339V55.8402C38.9282 57.2296 40.0546 58.356 41.444 58.356C42.8335 58.356 43.9598 57.2296 43.9598 55.8402V54.8339H38.9282ZM41.444 24.644C36.5253 24.644 32.4183 28.3947 31.9729 33.2931L31.0744 43.1773C30.9008 45.0862 29.752 46.7695 28.0375 47.6267C27.3084 47.9913 26.8523 48.7293 26.8523 49.5366V50.3054C26.8523 51.1391 27.5281 51.8149 28.3617 51.8149H54.5263C55.36 51.8149 56.0358 51.1391 56.0358 50.3054V49.5366C56.0358 48.7293 55.5797 47.9913 54.8576 47.6302C53.1361 46.7695 51.9872 45.0862 51.8137 43.1773L50.9151 33.2931C50.4698 28.3947 46.3627 24.644 41.444 24.644Z" fill="#5E3023"/>
</svg>
