<svg width="83" height="83" viewBox="0 0 83 83" fill="none" xmlns="http://www.w3.org/2000/svg">
<rect width="83" height="83" rx="20" fill="white"/>
<path fill-rule="evenodd" clip-rule="evenodd" d="M39.4393 26.0911C40.0624 26.7127 40.0624 27.7327 39.4393 28.3543L34.1911 33.5977H48.8089L43.5607 28.3543C42.9376 27.7327 42.9376 26.7127 43.5607 26.0911C44.1839 25.4696 45.1911 25.4696 45.8143 26.0911L53.3161 33.5977H59.0312C59.911 33.5977 60.625 34.3149 60.625 35.1915C60.625 36.068 59.911 36.7852 59.0312 36.7852H58.7667L56.2932 50.3958C55.8804 52.659 53.901 54.3165 51.59 54.3165H31.41C29.099 54.3165 27.1196 52.659 26.7068 50.3958L24.2333 36.7852H23.9688C23.089 36.7852 22.375 36.068 22.375 35.1915C22.375 34.3149 23.089 33.5977 23.9688 33.5977H29.6839L37.1857 26.0911C37.8089 25.4696 38.8161 25.4696 39.4393 26.0911ZM27.4716 36.7852L29.8415 49.8221C29.9786 50.5711 30.64 51.1289 31.4097 51.1289H51.5898C52.3596 51.1289 53.0194 50.5711 53.1565 49.8221L55.528 36.7852H27.4716ZM34.0654 39.9886C34.934 39.8452 35.7564 40.4349 35.8998 41.3115L36.6967 46.0927C36.8417 46.9533 36.2552 47.7821 35.3882 47.9255C34.5196 48.069 33.6973 47.4793 33.5538 46.6027L32.7569 41.8215C32.6119 40.9608 33.1984 40.1321 34.0654 39.9886ZM48.9351 39.9886C49.8021 40.1321 50.3886 40.9608 50.2436 41.8215L49.4467 46.6027C49.3033 47.4793 48.4809 48.069 47.6123 47.9255C46.7453 47.7821 46.1588 46.9533 46.3038 46.0927L47.1007 41.3115C47.2441 40.4349 48.0665 39.8452 48.9351 39.9886ZM41.5 39.9727C42.3797 39.9727 43.0938 40.6899 43.0938 41.5664V46.3477C43.0938 47.2242 42.3797 47.9414 41.5 47.9414C40.6203 47.9414 39.9062 47.2242 39.9062 46.3477V41.5664C39.9062 40.6899 40.6203 39.9727 41.5 39.9727Z" fill="#5E3023"/>
</svg>
