<svg width="30" height="30" viewBox="0 0 30 30" fill="none" xmlns="http://www.w3.org/2000/svg">
<path fill-rule="evenodd" clip-rule="evenodd" d="M3.75 9.0625C3.75 7.50906 5.00906 6.25 6.5625 6.25H23.4375C24.9909 6.25 26.25 7.50906 26.25 9.0625V20.3125C26.25 21.8659 24.9909 23.125 23.4375 23.125H6.5625C5.00906 23.125 3.75 21.8659 3.75 20.3125V9.0625ZM6.5625 8.125C6.045 8.125 5.625 8.545 5.625 9.0625V10H24.375V9.0625C24.375 8.545 23.955 8.125 23.4375 8.125H6.5625ZM24.375 11.875H5.625V20.3125C5.625 20.83 6.045 21.25 6.5625 21.25H23.4375C23.955 21.25 24.375 20.83 24.375 20.3125V11.875ZM7.5 18.4375C7.5 17.92 7.92 17.5 8.4375 17.5H14.0625C14.58 17.5 15 17.92 15 18.4375C15 18.955 14.58 19.375 14.0625 19.375H8.4375C7.92 19.375 7.5 18.955 7.5 18.4375Z" fill="#5E3023"/>
</svg>
