<svg width="83" height="83" viewBox="0 0 83 83" fill="none" xmlns="http://www.w3.org/2000/svg">
<rect width="83" height="83" rx="20" fill="white"/>
<path fill-rule="evenodd" clip-rule="evenodd" d="M41.0871 26.6432C32.6532 26.6432 25.8175 33.4789 25.8175 41.9129C25.8175 44.8412 26.6404 47.5728 28.0672 49.8955L28.527 50.6437L25.6546 57.3454L32.3563 54.473L33.1062 54.9328C35.4272 56.3596 38.1588 57.1825 41.0871 57.1825C49.5211 57.1825 56.3568 50.3468 56.3568 41.9129C56.3568 33.4789 49.5211 26.6432 41.0871 26.6432ZM22.4242 41.9129C22.4242 31.6059 30.7801 23.25 41.0871 23.25C51.3941 23.25 59.75 31.6059 59.75 41.9129C59.75 52.2199 51.3941 60.5758 41.0871 60.5758C37.833 60.5758 34.7689 59.741 32.1018 58.2752L26.9915 60.4655C24.1751 61.6718 21.3282 58.8249 22.5345 56.0085L24.7248 50.8982C23.259 48.2311 22.4242 45.167 22.4242 41.9129ZM32.604 38.5196C32.604 37.5831 33.3641 36.823 34.3006 36.823H39.3905C40.327 36.823 41.0871 37.5831 41.0871 38.5196C41.0871 39.4562 40.327 40.2163 39.3905 40.2163H34.3006C33.3641 40.2163 32.604 39.4562 32.604 38.5196ZM32.604 45.3061C32.604 44.3696 33.3641 43.6095 34.3006 43.6095H47.8736C48.8102 43.6095 49.5702 44.3696 49.5702 45.3061C49.5702 46.2426 48.8102 47.0027 47.8736 47.0027H34.3006C33.3641 47.0027 32.604 46.2426 32.604 45.3061Z" fill="#5E3023"/>
</svg>
