<svg width="83" height="83" viewBox="0 0 83 83" fill="none" xmlns="http://www.w3.org/2000/svg">
<rect width="83" height="83" rx="20" fill="white"/>
<path fill-rule="evenodd" clip-rule="evenodd" d="M52.4061 32.5518C49.9032 29.9379 45.9177 29.7074 43.1545 32.0163L41.5 33.3991L39.8455 32.0163C37.0823 29.7074 33.0968 29.9379 30.5939 32.5518C28.0448 35.2139 27.8902 39.4217 30.2794 42.1377C32.3581 44.5031 34.7803 47.1224 36.9608 49.1415C38.0536 50.1531 39.0553 50.9866 39.9023 51.5593C40.8168 52.1762 41.3282 52.3322 41.5 52.3322C41.6718 52.3322 42.1832 52.1762 43.0977 51.5593C43.9447 50.9866 44.9464 50.1531 46.0392 49.1415C48.2197 47.1224 50.6419 44.5031 52.7206 42.1377C55.1085 39.4217 54.9552 35.2139 52.4061 32.5518ZM41.5026 29.8606C45.319 26.6741 50.819 26.9915 54.2746 30.599C57.7726 34.2534 58.0633 40.1421 54.6671 44.0049C52.5673 46.3938 50.0737 49.0945 47.7928 51.2074C46.655 52.2618 45.5397 53.1961 44.5314 53.8778C43.5919 54.5127 42.5096 55.0923 41.5 55.0923C40.4904 55.0923 39.4081 54.5127 38.4686 53.8778C37.4603 53.1961 36.345 52.2618 35.2072 51.2074C32.9263 49.0945 30.4327 46.3938 28.3329 44.0049C24.9367 40.1421 25.2274 34.2534 28.7254 30.599C32.181 26.9915 37.681 26.6741 41.4974 29.8606L41.5 29.8634L41.5026 29.8606Z" fill="#5E3023"/>
<path d="M35.5714 29.3958L32.6071 30.0968L28.9018 31.4989L25.9375 36.406L27.4196 42.7151L37.7946 52.5293L41.5 55.3333L45.2054 52.5293L55.5804 42.7151L57.0625 36.406L54.0982 31.4989L50.3929 30.0968L46.6875 29.3958L41.5 31.4989L35.5714 29.3958Z" fill="#5E3023"/>
</svg>
