<svg width="30" height="30" viewBox="0 0 30 30" fill="none" xmlns="http://www.w3.org/2000/svg">
<path fill-rule="evenodd" clip-rule="evenodd" d="M15.0524 5.78594C9.992 5.78594 5.89057 9.88737 5.89057 14.9477C5.89057 16.7047 6.38429 18.3437 7.24041 19.7373L7.51628 20.1862L5.79285 24.2072L9.81385 22.4838L10.2638 22.7597C11.6564 23.6158 13.2953 24.1095 15.0524 24.1095C20.1127 24.1095 24.2141 20.0081 24.2141 14.9477C24.2141 9.88737 20.1127 5.78594 15.0524 5.78594ZM3.85453 14.9477C3.85453 8.76353 8.86806 3.75 15.0523 3.75C21.2365 3.75 26.25 8.76353 26.25 14.9477C26.25 21.1319 21.2365 26.1455 15.0523 26.1455C13.0998 26.1455 11.2613 25.6446 9.66107 24.7651L6.59493 26.0793C4.90509 26.8031 3.19692 25.0949 3.9207 23.4051L5.23491 20.3389C4.35538 18.7387 3.85453 16.9002 3.85453 14.9477ZM9.96246 12.9118C9.96246 12.3499 10.4185 11.8938 10.9804 11.8938H14.0344C14.5963 11.8938 15.0523 12.3499 15.0523 12.9118C15.0523 13.4737 14.5963 13.9298 14.0344 13.9298H10.9804C10.4185 13.9298 9.96246 13.4737 9.96246 12.9118ZM9.96246 16.9837C9.96246 16.4218 10.4185 15.9657 10.9804 15.9657H19.1242C19.6862 15.9657 20.1422 16.4218 20.1422 16.9837C20.1422 17.5456 19.6862 18.0017 19.1242 18.0017H10.9804C10.4185 18.0017 9.96246 17.5456 9.96246 16.9837Z" fill="#5E3023"/>
</svg>
