<svg width="83" height="83" viewBox="0 0 83 83" fill="none" xmlns="http://www.w3.org/2000/svg">
<rect width="83" height="83" rx="20" fill="white"/>
<path fill-rule="evenodd" clip-rule="evenodd" d="M41.137 19.75C38.4444 19.75 36.262 21.9275 36.262 24.625H46.012C46.012 21.9275 43.8296 19.75 41.137 19.75ZM33.0119 24.625H31.0261C28.5545 24.625 26.4745 26.4775 26.1852 28.9313L23.7006 50.0563C23.3594 52.9488 25.623 55.5 28.5415 55.5H53.7322C56.6507 55.5 58.9144 52.9488 58.5731 50.0563L56.0885 28.9313C55.7992 26.4775 53.7192 24.625 51.2476 24.625H49.2619C49.2619 20.14 45.6235 16.5 41.1369 16.5C36.6486 16.5 33.0119 20.14 33.0119 24.625Z" fill="#5E3023"/>
</svg>
